<svg width="22" height="22" viewBox="0 0 22 22" fill="none" xmlns="http://www.w3.org/2000/svg">
<g clip-path="url(#clip0_420_368)">
<path d="M4.125 17.7856H14.0044C16.0944 17.7856 17.7856 16.0944 17.7856 14.0044V4.125C17.7856 2.04185 16.0944 0.34375 14.0044 0.34375H4.125C2.04185 0.34375 0.34375 2.04185 0.34375 4.125V14.0044C0.34375 16.0944 2.04185 17.7856 4.125 17.7856ZM5.98126 8.03687H8.03687V5.98126C8.03687 5.41062 8.49749 4.95001 9.06812 4.95001C9.63876 4.95001 10.0994 5.41062 10.0994 5.98126V8.03687H12.1481C12.7187 8.03687 13.1794 8.49749 13.1794 9.06812C13.1794 9.63872 12.7187 10.0994 12.1481 10.0994H10.0994V12.1481C10.0994 12.7187 9.63876 13.1794 9.06812 13.1794C8.49749 13.1794 8.03687 12.7187 8.03687 12.1481V10.0994H5.98126C5.41062 10.0994 4.95001 9.63872 4.95001 9.06812C4.95001 8.49749 5.41062 8.03687 5.98126 8.03687Z" fill="white"/>
<path d="M20.6247 8.03442C20.0554 8.03442 19.5934 8.496 19.5934 9.06567V16.4999C19.5934 18.2059 18.2057 19.5937 16.4997 19.5937H9.06543C8.49576 19.5937 8.03418 20.0553 8.03418 20.6249C8.03418 21.1946 8.49576 21.6562 9.06543 21.6562H16.4997C19.343 21.6562 21.6559 19.3433 21.6559 16.4999V9.06567C21.6559 8.496 21.194 8.03442 20.6247 8.03442Z" fill="white"/>
</g>
<defs>
<clipPath id="clip0_420_368">
<rect width="22" height="22" fill="white"/>
</clipPath>
</defs>
</svg>
