<svg width="20" height="19" viewBox="0 0 20 19" fill="none" xmlns="http://www.w3.org/2000/svg">
<g clip-path="url(#clip0_435_1136)">
<path d="M14.7497 10.2916H10.7913V14.2499C10.7913 14.6853 10.4351 15.0416 9.99967 15.0416C9.56426 15.0416 9.20801 14.6853 9.20801 14.2499V10.2916H5.24967C4.81426 10.2916 4.45801 9.93534 4.45801 9.49992C4.45801 9.0645 4.81426 8.70825 5.24967 8.70825H9.20801V4.74992C9.20801 4.3145 9.56426 3.95825 9.99967 3.95825C10.4351 3.95825 10.7913 4.3145 10.7913 4.74992V8.70825H14.7497C15.1851 8.70825 15.5413 9.0645 15.5413 9.49992C15.5413 9.93534 15.1851 10.2916 14.7497 10.2916Z" fill="white"/>
</g>
<defs>
<clipPath id="clip0_435_1136">
<rect width="19" height="19" fill="white" transform="translate(0.5)"/>
</clipPath>
</defs>
</svg>
