<svg width="14" height="8" viewBox="0 0 14 8" fill="none" xmlns="http://www.w3.org/2000/svg">
<path d="M13.2496 0.462856C13.0154 0.230042 12.6986 0.0993652 12.3684 0.0993652C12.0381 0.0993652 11.7213 0.230042 11.4871 0.462856L6.99963 4.88786L2.57463 0.462856C2.34043 0.230042 2.02361 0.0993652 1.69338 0.0993652C1.36315 0.0993652 1.04633 0.230042 0.812131 0.462856C0.69497 0.57906 0.601977 0.717311 0.538516 0.869635C0.475055 1.02196 0.442383 1.18534 0.442383 1.35036C0.442383 1.51537 0.475055 1.67875 0.538516 1.83108C0.601977 1.9834 0.69497 2.12165 0.812131 2.23786L6.11213 7.53786C6.22833 7.65502 6.36659 7.74801 6.51891 7.81147C6.67123 7.87493 6.83462 7.9076 6.99963 7.9076C7.16465 7.9076 7.32803 7.87493 7.48035 7.81147C7.63268 7.74801 7.77093 7.65502 7.88713 7.53786L13.2496 2.23786C13.3668 2.12165 13.4598 1.9834 13.5232 1.83108C13.5867 1.67875 13.6194 1.51537 13.6194 1.35036C13.6194 1.18534 13.5867 1.02196 13.5232 0.869635C13.4598 0.717311 13.3668 0.57906 13.2496 0.462856Z" fill="black"/>
</svg>
