<svg width="20" height="20" viewBox="0 0 20 20" fill="none" xmlns="http://www.w3.org/2000/svg">
<path d="M13.1343 19.5023L4.28874 10.6829C4.18375 10.5779 4.10921 10.4642 4.06511 10.3417C4.02101 10.2192 3.99932 10.088 4.00002 9.948C4.00002 9.80801 4.02171 9.67677 4.06511 9.55428C4.10851 9.43179 4.18305 9.31804 4.28874 9.21305L13.1343 0.367472C13.3793 0.122491 13.6855 0 14.053 0C14.4205 0 14.7355 0.13124 14.9979 0.39372C15.2604 0.6562 15.3917 0.962427 15.3917 1.3124C15.3917 1.66237 15.2604 1.9686 14.9979 2.23108L7.28102 9.948L14.9979 17.6649C15.2429 17.9099 15.3654 18.2119 15.3654 18.571C15.3654 18.9301 15.2342 19.2405 14.9717 19.5023C14.7092 19.7648 14.403 19.896 14.053 19.896C13.703 19.896 13.3968 19.7648 13.1343 19.5023Z" fill="#232438"/>
</svg>
