<svg width="12" height="12" viewBox="0 0 12 12" fill="none" xmlns="http://www.w3.org/2000/svg">
<path d="M2.33333 12C1.68889 12 1.13889 11.7722 0.683333 11.3167C0.227778 10.8611 0 10.3111 0 9.66667C0 9.02222 0.227778 8.47222 0.683333 8.01667C1.13889 7.56111 1.68889 7.33333 2.33333 7.33333H3.33333V4.66667H2.33333C1.68889 4.66667 1.13889 4.43889 0.683333 3.98333C0.227778 3.52778 0 2.97778 0 2.33333C0 1.68889 0.227778 1.13889 0.683333 0.683333C1.13889 0.227778 1.68889 0 2.33333 0C2.97778 0 3.52778 0.227778 3.98333 0.683333C4.43889 1.13889 4.66667 1.68889 4.66667 2.33333V3.33333H7.33333V2.33333C7.33333 1.68889 7.56111 1.13889 8.01667 0.683333C8.47222 0.227778 9.02222 0 9.66667 0C10.3111 0 10.8611 0.227778 11.3167 0.683333C11.7722 1.13889 12 1.68889 12 2.33333C12 2.97778 11.7722 3.52778 11.3167 3.98333C10.8611 4.43889 10.3111 4.66667 9.66667 4.66667H8.66667V7.33333H9.66667C10.3111 7.33333 10.8611 7.56111 11.3167 8.01667C11.7722 8.47222 12 9.02222 12 9.66667C12 10.3111 11.7722 10.8611 11.3167 11.3167C10.8611 11.7722 10.3111 12 9.66667 12C9.02222 12 8.47222 11.7722 8.01667 11.3167C7.56111 10.8611 7.33333 10.3111 7.33333 9.66667V8.66667H4.66667V9.66667C4.66667 10.3111 4.43889 10.8611 3.98333 11.3167C3.52778 11.7722 2.97778 12 2.33333 12ZM2.33333 10.6667C2.61111 10.6667 2.84733 10.5693 3.042 10.3747C3.23667 10.18 3.33378 9.944 3.33333 9.66667V8.66667H2.33333C2.05556 8.66667 1.81933 8.764 1.62467 8.95867C1.43 9.15333 1.33289 9.38933 1.33333 9.66667C1.33333 9.94444 1.43067 10.1807 1.62533 10.3753C1.82 10.57 2.056 10.6671 2.33333 10.6667ZM9.66667 10.6667C9.94444 10.6667 10.1807 10.5693 10.3753 10.3747C10.57 10.18 10.6671 9.944 10.6667 9.66667C10.6667 9.38889 10.5693 9.15267 10.3747 8.958C10.18 8.76333 9.944 8.66622 9.66667 8.66667H8.66667V9.66667C8.66667 9.94444 8.764 10.1807 8.95867 10.3753C9.15333 10.57 9.38933 10.6671 9.66667 10.6667ZM4.66667 7.33333H7.33333V4.66667H4.66667V7.33333ZM2.33333 3.33333H3.33333V2.33333C3.33333 2.05556 3.236 1.81933 3.04133 1.62467C2.84667 1.43 2.61067 1.33289 2.33333 1.33333C2.05556 1.33333 1.81933 1.43067 1.62467 1.62533C1.43 1.82 1.33289 2.056 1.33333 2.33333C1.33333 2.61111 1.43067 2.84733 1.62533 3.042C1.82 3.23667 2.056 3.33378 2.33333 3.33333ZM8.66667 3.33333H9.66667C9.94444 3.33333 10.1807 3.236 10.3753 3.04133C10.57 2.84667 10.6671 2.61067 10.6667 2.33333C10.6667 2.05556 10.5693 1.81933 10.3747 1.62467C10.18 1.43 9.944 1.33289 9.66667 1.33333C9.38889 1.33333 9.15267 1.43067 8.958 1.62533C8.76333 1.82 8.66622 2.056 8.66667 2.33333V3.33333Z" fill="#6166f1"/>
</svg>
