<svg width="18" height="18" viewBox="0 0 18 18" fill="none" xmlns="http://www.w3.org/2000/svg">
<path d="M4.50033 4.59591L4.5 11.8125C4.5 13.3037 5.66048 14.5238 7.12758 14.619L7.3125 14.625L12.2787 14.6258C12.0468 15.2808 11.422 15.75 10.6875 15.75H6.75C4.88604 15.75 3.375 14.239 3.375 12.375V6.1875C3.375 5.45263 3.84474 4.82747 4.50033 4.59591ZM12.9375 2.25C13.8695 2.25 14.625 3.00552 14.625 3.9375V11.8125C14.625 12.7445 13.8695 13.5 12.9375 13.5H7.3125C6.38052 13.5 5.625 12.7445 5.625 11.8125V3.9375C5.625 3.00552 6.38052 2.25 7.3125 2.25H12.9375ZM12.9375 3.375H7.3125C7.00184 3.375 6.75 3.62684 6.75 3.9375V11.8125C6.75 12.1232 7.00184 12.375 7.3125 12.375H12.9375C13.2482 12.375 13.5 12.1232 13.5 11.8125V3.9375C13.5 3.62684 13.2482 3.375 12.9375 3.375Z" fill="white"/>
</svg>
