<svg width="17" height="17" viewBox="0 0 17 17" fill="none" xmlns="http://www.w3.org/2000/svg">
<path d="M3.41667 15.5385C3.02708 15.5385 2.69346 15.3999 2.41579 15.1228C2.13813 14.8456 1.99953 14.5119 2 14.1219V4.20521C2 3.81563 2.13883 3.482 2.4165 3.20433C2.69417 2.92667 3.02756 2.78807 3.41667 2.78854H9.73854L8.32188 4.20521H3.41667V14.1219H13.3333V9.19896L14.75 7.78229V14.1219C14.75 14.5115 14.6112 14.8451 14.3335 15.1228C14.0558 15.4004 13.7224 15.539 13.3333 15.5385H3.41667ZM11.3323 3.19583L12.3417 4.1875L7.66667 8.8625V9.87188H8.65833L13.351 5.17917L14.3604 6.17083L9.66771 10.8635C9.53785 10.9934 9.38721 11.0968 9.21579 11.1738C9.04438 11.2508 8.86446 11.289 8.67604 11.2885H6.95833C6.75764 11.2885 6.58929 11.2205 6.45329 11.0845C6.31729 10.9485 6.24953 10.7804 6.25 10.5802V8.8625C6.25 8.67361 6.28542 8.49346 6.35625 8.32204C6.42708 8.15063 6.52743 8.00022 6.65729 7.87083L11.3323 3.19583ZM14.3604 6.17083L11.3323 3.19583L13.1031 1.425C13.3865 1.14167 13.726 1 14.1217 1C14.5174 1 14.8508 1.14167 15.1219 1.425L16.1135 2.43438C16.3851 2.7059 16.5208 3.03646 16.5208 3.42604C16.5208 3.81563 16.3851 4.14618 16.1135 4.41771L14.3604 6.17083Z" fill="#6166F1"/>
</svg>
