<svg width="15" height="15" viewBox="0 0 15 15" fill="none" xmlns="http://www.w3.org/2000/svg">
<path d="M1.41667 14.5385C1.02708 14.5385 0.693459 14.3999 0.415793 14.1228C0.138126 13.8456 -0.00047102 13.5119 1.2026e-06 13.1219V3.20521C1.2026e-06 2.81563 0.138835 2.482 0.416501 2.20433C0.694168 1.92667 1.02756 1.78807 1.41667 1.78854H7.73854L6.32188 3.20521H1.41667V13.1219H11.3333V8.19896L12.75 6.78229V13.1219C12.75 13.5115 12.6112 13.8451 12.3335 14.1228C12.0558 14.4004 11.7224 14.539 11.3333 14.5385H1.41667ZM9.33229 2.19583L10.3417 3.1875L5.66667 7.8625V8.87188H6.65833L11.351 4.17917L12.3604 5.17083L7.66771 9.86354C7.53785 9.9934 7.38721 10.0968 7.21579 10.1738C7.04438 10.2508 6.86446 10.289 6.67604 10.2885H4.95833C4.75764 10.2885 4.58929 10.2205 4.45329 10.0845C4.31729 9.94854 4.24953 9.78043 4.25 9.58021V7.8625C4.25 7.67361 4.28542 7.49346 4.35625 7.32204C4.42708 7.15063 4.52743 7.00022 4.65729 6.87083L9.33229 2.19583ZM12.3604 5.17083L9.33229 2.19583L11.1031 0.425C11.3865 0.141667 11.726 0 12.1217 0C12.5174 0 12.8508 0.141667 13.1219 0.425L14.1135 1.43438C14.3851 1.7059 14.5208 2.03646 14.5208 2.42604C14.5208 2.81563 14.3851 3.14618 14.1135 3.41771L12.3604 5.17083Z" fill="#6166F1"/>
</svg>
