<svg width="84" height="84" viewBox="0 0 84 84" fill="none" xmlns="http://www.w3.org/2000/svg">
<rect width="84" height="84" rx="42" fill="#F3F3F3"/>
<g clip-path="url(#clip0_420_373)">
<path d="M10.7373 49.5861L41.6847 31.7986L72.632 49.5861L41.6847 67.4533L10.7373 49.5861Z" fill="#E9EEFC"/>
<circle cx="1.13508" cy="1.13508" r="1.13508" transform="matrix(0.866044 -0.499967 0.866044 0.499967 16.1777 48.4854)" fill="white"/>
<circle cx="1.13508" cy="1.13508" r="1.13508" transform="matrix(0.866044 -0.499967 0.866044 0.499967 19.5967 46.5115)" fill="white"/>
<circle cx="1.13508" cy="1.13508" r="1.13508" transform="matrix(0.866044 -0.499967 0.866044 0.499967 23.0166 44.5376)" fill="white"/>
<path d="M25.1308 50.8798C25.0005 50.955 24.9273 51.057 24.9272 51.1633C24.9271 51.2696 25.0002 51.3715 25.1303 51.4466C25.2605 51.5217 25.437 51.5639 25.6212 51.5639C25.8053 51.5638 25.9819 51.5215 26.1121 51.4463C26.2424 51.3712 26.3156 51.2692 26.3157 51.1629C26.3158 51.0566 26.2427 50.9547 26.1126 50.8795C25.9825 50.8044 25.8059 50.7622 25.6218 50.7623C25.4377 50.7623 25.261 50.8046 25.1308 50.8798ZM27.5864 49.4622L28.5678 50.0287L33.4791 47.1934L32.4977 46.6269L27.5864 49.4622ZM33.48 46.0598L34.4613 46.6264L36.4259 45.4922L35.4445 44.9257L33.48 46.0598ZM36.4268 44.3586L37.4081 44.9252L47.2307 39.2546L46.2493 38.6881L36.4268 44.3586ZM27.0935 52.0129C26.9633 52.0881 26.89 52.1901 26.89 52.2963C26.8899 52.4026 26.9629 52.5046 27.0931 52.5797C27.2232 52.6548 27.3998 52.697 27.5839 52.697C27.768 52.6969 27.9446 52.6546 28.0749 52.5794C28.2051 52.5042 28.2784 52.4023 28.2785 52.296C28.2785 52.1897 28.2055 52.0878 28.0753 52.0126C27.9452 51.9375 27.7686 51.8953 27.5845 51.8954C27.4004 51.8954 27.2238 51.9377 27.0935 52.0129ZM29.5492 50.5952L30.5305 51.1618L31.5128 50.5947L30.5314 50.0282L29.5492 50.5952ZM31.5137 49.4611L32.4951 50.0277L40.3531 45.4912L39.3718 44.9247L31.5137 49.4611ZM40.354 44.3576L41.3354 44.9242L42.3176 44.3571L41.3363 43.7906L40.354 44.3576ZM42.3185 43.2235L43.2999 43.79L47.2289 41.5218L46.2476 40.9553L42.3185 43.2235ZM29.0563 53.146C28.926 53.2212 28.8528 53.3231 28.8527 53.4294C28.8526 53.5357 28.9257 53.6377 29.0558 53.7128C29.186 53.7879 29.3625 53.8301 29.5466 53.83C29.7308 53.83 29.9074 53.7877 30.0376 53.7125C30.1679 53.6373 30.2411 53.5354 30.2412 53.4291C30.2413 53.3228 30.1682 53.2209 30.0381 53.1457C29.9079 53.0706 29.7314 53.0284 29.5473 53.0285C29.3631 53.0285 29.1865 53.0708 29.0563 53.146ZM31.5119 51.7283L32.4933 52.2949L40.3514 47.7584L39.37 47.1919L31.5119 51.7283ZM31.019 54.2791C30.8888 54.3543 30.8155 54.4562 30.8154 54.5625C30.8154 54.6688 30.8884 54.7707 31.0186 54.8459C31.1487 54.921 31.3253 54.9632 31.5094 54.9631C31.6935 54.9631 31.8701 54.9208 32.0004 54.8456C32.1306 54.7704 32.2039 54.6685 32.2039 54.5622C32.204 54.4559 32.131 54.3539 32.0008 54.2788C31.8707 54.2037 31.6941 54.1615 31.51 54.1616C31.3259 54.1616 31.1493 54.2039 31.019 54.2791ZM33.4747 52.8614L34.456 53.428L36.4205 52.2939L35.4392 51.7273L33.4747 52.8614ZM36.4214 51.1603L37.4028 51.7268L44.2786 47.7574L43.2972 47.1909L36.4214 51.1603ZM32.9818 55.4122C32.8515 55.4874 32.7783 55.5893 32.7782 55.6956C32.7781 55.8019 32.8512 55.9038 32.9813 55.979C33.1114 56.0541 33.288 56.0963 33.4721 56.0962C33.6562 56.0962 33.8329 56.0539 33.9631 55.9787C34.0934 55.9035 34.1666 55.8016 34.1667 55.6953C34.1668 55.589 34.0937 55.487 33.9636 55.4119C33.8334 55.3368 33.6569 55.2946 33.4727 55.2947C33.2886 55.2947 33.112 55.337 32.9818 55.4122ZM39.3664 51.7263L40.3478 52.2928L44.2768 50.0246L43.2955 49.4581L39.3664 51.7263ZM34.9445 56.5453C34.8142 56.6205 34.741 56.7224 34.7409 56.8287C34.7408 56.935 34.8139 57.0369 34.9441 57.1121C35.0742 57.1872 35.2507 57.2294 35.4349 57.2293C35.619 57.2293 35.7956 57.187 35.9259 57.1118C36.0561 57.0366 36.1293 56.9346 36.1294 56.8284C36.1295 56.7221 36.0564 56.6201 35.9263 56.545C35.7962 56.4699 35.6196 56.4277 35.4355 56.4277C35.2514 56.4278 35.0747 56.4701 34.9445 56.5453ZM41.3292 52.8594L42.3105 53.4259L48.2041 50.0236L47.2227 49.457L41.3292 52.8594ZM48.205 48.89L49.1864 49.4565L50.1686 48.8895L49.1872 48.3229L48.205 48.89ZM36.9072 57.6784C36.777 57.7535 36.7038 57.8555 36.7037 57.9618C36.7036 58.0681 36.7767 58.17 36.9068 58.2452C37.0369 58.3203 37.2135 58.3625 37.3976 58.3624C37.5817 58.3624 37.7584 58.3201 37.8886 58.2449C38.0189 58.1697 38.0921 58.0677 38.0922 57.9614C38.0923 57.8551 38.0192 57.7532 37.8891 57.6781C37.7589 57.603 37.5824 57.5608 37.3982 57.5608C37.2141 57.5609 37.0375 57.6032 36.9072 57.6784ZM43.2919 53.9925L44.2733 54.559L50.1668 51.1567L49.1855 50.5901L43.2919 53.9925ZM50.1677 50.0231L51.1491 50.5896L52.1314 50.0226L51.15 49.456L50.1677 50.0231ZM38.87 58.8114C38.7397 58.8866 38.6665 58.9886 38.6664 59.0949C38.6663 59.2012 38.7394 59.3031 38.8695 59.3782C38.9997 59.4534 39.1762 59.4956 39.3604 59.4955C39.5445 59.4955 39.7211 59.4532 39.8514 59.378C39.9816 59.3028 40.0548 59.2008 40.0549 59.0945C40.055 58.9882 39.9819 58.8863 39.8518 58.8112C39.7217 58.7361 39.5451 58.6939 39.361 58.6939C39.1769 58.694 39.0002 58.7362 38.87 58.8114ZM45.2547 55.1256L46.236 55.6921L48.2006 54.558L47.2192 53.9915L45.2547 55.1256ZM40.8327 59.9445C40.7025 60.0197 40.6292 60.1217 40.6292 60.228C40.6291 60.3343 40.7021 60.4362 40.8323 60.5113C40.9624 60.5865 41.139 60.6286 41.3231 60.6286C41.5072 60.6285 41.6838 60.5863 41.8141 60.5111C41.9444 60.4359 42.0176 60.3339 42.0177 60.2276C42.0177 60.1213 41.9447 60.0194 41.8145 59.9443C41.6844 59.8692 41.5079 59.827 41.3237 59.827C41.1396 59.8271 40.963 59.8693 40.8327 59.9445ZM43.2884 58.5269L44.2697 59.0934L52.1278 54.557L51.1464 53.9904L43.2884 58.5269ZM52.1287 53.4234L53.1101 53.9899L55.0746 52.8558L54.0932 52.2893L52.1287 53.4234ZM42.7955 61.0776C42.6652 61.1528 42.592 61.2548 42.5919 61.3611C42.5918 61.4674 42.6649 61.5693 42.795 61.6444C42.9252 61.7196 43.1017 61.7617 43.2858 61.7617C43.47 61.7616 43.6466 61.7194 43.7768 61.6442C43.9071 61.569 43.9803 61.467 43.9804 61.3607C43.9805 61.2544 43.9074 61.1525 43.7773 61.0774C43.6471 61.0022 43.4706 60.9601 43.2865 60.9601C43.1023 60.9602 42.9257 61.0024 42.7955 61.0776ZM45.2511 59.66L46.2325 60.2265L51.1438 57.3912L50.1624 56.8247L45.2511 59.66ZM51.1447 56.2576L52.126 56.8242L59.9841 52.2877L59.0027 51.7212L51.1447 56.2576Z" fill="white"/>
<path d="M16.6006 53.0133L47.4271 35.1218" stroke="white" stroke-width="0.120888"/>
<path d="M10.7373 42.091L41.6847 24.3035L72.632 42.091L41.6847 59.9582L10.7373 42.091Z" fill="#94B0FF"/>
<circle cx="1.13508" cy="1.13508" r="1.13508" transform="matrix(0.866044 -0.499967 0.866044 0.499967 16.1777 40.9902)" fill="white"/>
<circle cx="1.13508" cy="1.13508" r="1.13508" transform="matrix(0.866044 -0.499967 0.866044 0.499967 19.5967 39.0166)" fill="white"/>
<circle cx="1.13508" cy="1.13508" r="1.13508" transform="matrix(0.866044 -0.499967 0.866044 0.499967 23.0166 37.0425)" fill="white"/>
<path d="M25.1308 43.3847C25.0005 43.4599 24.9273 43.5618 24.9272 43.6681C24.9271 43.7744 25.0002 43.8764 25.1303 43.9515C25.2605 44.0266 25.437 44.0688 25.6212 44.0687C25.8053 44.0687 25.9819 44.0264 26.1121 43.9512C26.2424 43.876 26.3156 43.7741 26.3157 43.6678C26.3158 43.5615 26.2427 43.4596 26.1126 43.3844C25.9825 43.3093 25.8059 43.2671 25.6218 43.2672C25.4377 43.2672 25.261 43.3095 25.1308 43.3847ZM27.5864 41.967L28.5678 42.5336L33.4791 39.6983L32.4977 39.1317L27.5864 41.967ZM33.48 38.5647L34.4613 39.1312L36.4259 37.9971L35.4445 37.4306L33.48 38.5647ZM36.4268 36.8635L37.4081 37.4301L47.2307 31.7595L46.2493 31.1929L36.4268 36.8635ZM27.0935 44.5178C26.9633 44.593 26.89 44.6949 26.89 44.8012C26.8899 44.9075 26.9629 45.0094 27.0931 45.0846C27.2232 45.1597 27.3998 45.2019 27.5839 45.2018C27.768 45.2018 27.9446 45.1595 28.0749 45.0843C28.2051 45.0091 28.2784 44.9072 28.2785 44.8009C28.2785 44.6946 28.2055 44.5926 28.0753 44.5175C27.9452 44.4424 27.7686 44.4002 27.5845 44.4003C27.4004 44.4003 27.2238 44.4426 27.0935 44.5178ZM29.5492 43.1001L30.5305 43.6667L31.5128 43.0996L30.5314 42.5331L29.5492 43.1001ZM31.5137 41.966L32.4951 42.5326L40.3531 37.9961L39.3718 37.4296L31.5137 41.966ZM40.354 36.8625L41.3354 37.429L42.3176 36.862L41.3363 36.2954L40.354 36.8625ZM42.3185 35.7284L43.2999 36.2949L47.2289 34.0267L46.2476 33.4601L42.3185 35.7284ZM29.0563 45.6509C28.926 45.7261 28.8528 45.828 28.8527 45.9343C28.8526 46.0406 28.9257 46.1425 29.0558 46.2177C29.186 46.2928 29.3625 46.335 29.5466 46.3349C29.7308 46.3349 29.9074 46.2926 30.0376 46.2174C30.1679 46.1422 30.2411 46.0403 30.2412 45.934C30.2413 45.8277 30.1682 45.7257 30.0381 45.6506C29.9079 45.5755 29.7314 45.5333 29.5473 45.5334C29.3631 45.5334 29.1865 45.5757 29.0563 45.6509ZM31.5119 44.2332L32.4933 44.7998L40.3514 40.2633L39.37 39.6968L31.5119 44.2332ZM31.019 46.784C30.8888 46.8592 30.8155 46.9611 30.8154 47.0674C30.8154 47.1737 30.8884 47.2756 31.0186 47.3508C31.1487 47.4259 31.3253 47.4681 31.5094 47.468C31.6935 47.468 31.8701 47.4257 32.0004 47.3505C32.1306 47.2753 32.2039 47.1733 32.2039 47.0671C32.204 46.9608 32.131 46.8588 32.0008 46.7837C31.8707 46.7086 31.6941 46.6664 31.51 46.6664C31.3259 46.6665 31.1493 46.7088 31.019 46.784ZM33.4747 45.3663L34.456 45.9329L36.4205 44.7987L35.4392 44.2322L33.4747 45.3663ZM36.4214 43.6651L37.4028 44.2317L44.2786 40.2623L43.2972 39.6957L36.4214 43.6651ZM32.9818 47.9171C32.8515 47.9922 32.7783 48.0942 32.7782 48.2005C32.7781 48.3068 32.8512 48.4087 32.9813 48.4839C33.1114 48.559 33.288 48.6012 33.4721 48.6011C33.6562 48.6011 33.8329 48.5588 33.9631 48.4836C34.0934 48.4084 34.1666 48.3064 34.1667 48.2001C34.1668 48.0938 34.0937 47.9919 33.9636 47.9168C33.8334 47.8417 33.6569 47.7995 33.4727 47.7995C33.2886 47.7996 33.112 47.8419 32.9818 47.9171ZM39.3664 44.2312L40.3478 44.7977L44.2768 42.5295L43.2955 41.9629L39.3664 44.2312ZM34.9445 49.0501C34.8142 49.1253 34.741 49.2273 34.7409 49.3336C34.7408 49.4399 34.8139 49.5418 34.9441 49.6169C35.0742 49.6921 35.2507 49.7343 35.4349 49.7342C35.619 49.7342 35.7956 49.6919 35.9259 49.6167C36.0561 49.5415 36.1293 49.4395 36.1294 49.3332C36.1295 49.2269 36.0564 49.125 35.9263 49.0499C35.7962 48.9748 35.6196 48.9326 35.4355 48.9326C35.2514 48.9327 35.0747 48.9749 34.9445 49.0501ZM41.3292 45.3643L42.3105 45.9308L48.2041 42.5285L47.2227 41.9619L41.3292 45.3643ZM48.205 41.3949L49.1864 41.9614L50.1686 41.3943L49.1872 40.8278L48.205 41.3949ZM36.9072 50.1832C36.777 50.2584 36.7038 50.3604 36.7037 50.4667C36.7036 50.573 36.7767 50.6749 36.9068 50.75C37.0369 50.8252 37.2135 50.8673 37.3976 50.8673C37.5817 50.8672 37.7584 50.825 37.8886 50.7498C38.0189 50.6746 38.0921 50.5726 38.0922 50.4663C38.0923 50.36 38.0192 50.2581 37.8891 50.183C37.7589 50.1078 37.5824 50.0657 37.3982 50.0657C37.2141 50.0658 37.0375 50.108 36.9072 50.1832ZM43.2919 46.4974L44.2733 47.0639L50.1668 43.6616L49.1855 43.095L43.2919 46.4974ZM50.1677 42.528L51.1491 43.0945L52.1314 42.5274L51.15 41.9609L50.1677 42.528ZM38.87 51.3163C38.7397 51.3915 38.6665 51.4935 38.6664 51.5998C38.6663 51.7061 38.7394 51.808 38.8695 51.8831C38.9997 51.9583 39.1762 52.0004 39.3604 52.0004C39.5445 52.0003 39.7211 51.9581 39.8514 51.8829C39.9816 51.8077 40.0548 51.7057 40.0549 51.5994C40.055 51.4931 39.9819 51.3912 39.8518 51.3161C39.7217 51.2409 39.5451 51.1988 39.361 51.1988C39.1769 51.1989 39.0002 51.2411 38.87 51.3163ZM45.2547 47.6305L46.236 48.197L48.2006 47.0629L47.2192 46.4963L45.2547 47.6305ZM40.8327 52.4494C40.7025 52.5246 40.6292 52.6266 40.6292 52.7329C40.6291 52.8392 40.7021 52.9411 40.8323 53.0162C40.9624 53.0913 41.139 53.1335 41.3231 53.1335C41.5072 53.1334 41.6838 53.0912 41.8141 53.016C41.9444 52.9408 42.0176 52.8388 42.0177 52.7325C42.0177 52.6262 41.9447 52.5243 41.8145 52.4492C41.6844 52.374 41.5079 52.3319 41.3237 52.3319C41.1396 52.332 40.963 52.3742 40.8327 52.4494ZM43.2884 51.0318L44.2697 51.5983L52.1278 47.0619L51.1464 46.4953L43.2884 51.0318ZM52.1287 45.9283L53.1101 46.4948L55.0746 45.3607L54.0932 44.7941L52.1287 45.9283ZM42.7955 53.5825C42.6652 53.6577 42.592 53.7597 42.5919 53.866C42.5918 53.9723 42.6649 54.0742 42.795 54.1493C42.9252 54.2244 43.1017 54.2666 43.2858 54.2666C43.47 54.2665 43.6466 54.2243 43.7768 54.1491C43.9071 54.0739 43.9803 53.9719 43.9804 53.8656C43.9805 53.7593 43.9074 53.6574 43.7773 53.5823C43.6471 53.5071 43.4706 53.4649 43.2865 53.465C43.1023 53.465 42.9257 53.5073 42.7955 53.5825ZM45.2511 52.1649L46.2325 52.7314L51.1438 49.8961L50.1624 49.3296L45.2511 52.1649ZM51.1447 48.7625L52.126 49.3291L59.9841 44.7926L59.0027 44.2261L51.1447 48.7625Z" fill="white"/>
<path d="M16.6006 45.5182L47.4271 27.6267" stroke="white" stroke-width="0.120888"/>
<path d="M10.7373 34.839L41.6847 17.0515L72.632 34.839L41.6847 52.7063L10.7373 34.839Z" fill="#557BEB"/>
<circle cx="1.13508" cy="1.13508" r="1.13508" transform="matrix(0.866044 -0.499967 0.866044 0.499967 16.1777 33.7383)" fill="white"/>
<circle cx="1.13508" cy="1.13508" r="1.13508" transform="matrix(0.866044 -0.499967 0.866044 0.499967 19.5967 31.7644)" fill="white"/>
<circle cx="1.13508" cy="1.13508" r="1.13508" transform="matrix(0.866044 -0.499967 0.866044 0.499967 23.0166 29.7905)" fill="white"/>
<path d="M16.6006 38.266L47.4271 20.3745" stroke="white" stroke-width="0.120888"/>
<path d="M25.1308 36.3742C25.0005 36.4494 24.9273 36.5513 24.9272 36.6576C24.9271 36.7639 25.0002 36.8659 25.1303 36.941C25.2605 37.0161 25.437 37.0583 25.6212 37.0582C25.8053 37.0582 25.9819 37.0159 26.1121 36.9407C26.2424 36.8655 26.3156 36.7636 26.3157 36.6573C26.3158 36.551 26.2427 36.4491 26.1126 36.3739C25.9825 36.2988 25.8059 36.2566 25.6218 36.2567C25.4377 36.2567 25.261 36.299 25.1308 36.3742ZM27.5864 34.9565L28.5678 35.5231L33.4791 32.6878L32.4977 32.1213L27.5864 34.9565ZM33.48 31.5542L34.4613 32.1207L36.4259 30.9866L35.4445 30.4201L33.48 31.5542ZM36.4268 29.853L37.4081 30.4196L47.2307 24.749L46.2493 24.1824L36.4268 29.853ZM27.0935 37.5073C26.9633 37.5825 26.89 37.6844 26.89 37.7907C26.8899 37.897 26.9629 37.999 27.0931 38.0741C27.2232 38.1492 27.3998 38.1914 27.5839 38.1913C27.768 38.1913 27.9446 38.149 28.0749 38.0738C28.2051 37.9986 28.2784 37.8967 28.2785 37.7904C28.2785 37.6841 28.2055 37.5822 28.0753 37.507C27.9452 37.4319 27.7686 37.3897 27.5845 37.3898C27.4004 37.3898 27.2238 37.4321 27.0935 37.5073ZM29.5492 36.0896L30.5305 36.6562L31.5128 36.0891L30.5314 35.5226L29.5492 36.0896ZM31.5137 34.9555L32.4951 35.5221L40.3531 30.9856L39.3718 30.4191L31.5137 34.9555ZM40.354 29.852L41.3354 30.4185L42.3176 29.8515L41.3363 29.2849L40.354 29.852ZM42.3185 28.7179L43.2999 29.2844L47.2289 27.0162L46.2476 26.4496L42.3185 28.7179ZM29.0563 38.6404C28.926 38.7156 28.8528 38.8175 28.8527 38.9238C28.8526 39.0301 28.9257 39.132 29.0558 39.2072C29.186 39.2823 29.3625 39.3245 29.5466 39.3244C29.7308 39.3244 29.9074 39.2821 30.0376 39.2069C30.1679 39.1317 30.2411 39.0298 30.2412 38.9235C30.2413 38.8172 30.1682 38.7152 30.0381 38.6401C29.9079 38.565 29.7314 38.5228 29.5473 38.5229C29.3631 38.5229 29.1865 38.5652 29.0563 38.6404ZM31.5119 37.2227L32.4933 37.7893L40.3514 33.2528L39.37 32.6863L31.5119 37.2227ZM31.019 39.7735C30.8888 39.8487 30.8155 39.9506 30.8154 40.0569C30.8154 40.1632 30.8884 40.2651 31.0186 40.3403C31.1487 40.4154 31.3253 40.4576 31.5094 40.4575C31.6935 40.4575 31.8701 40.4152 32.0004 40.34C32.1306 40.2648 32.2039 40.1628 32.2039 40.0566C32.204 39.9503 32.131 39.8483 32.0008 39.7732C31.8707 39.6981 31.6941 39.6559 31.51 39.6559C31.3259 39.656 31.1493 39.6983 31.019 39.7735ZM33.4747 38.3558L34.456 38.9224L36.4205 37.7882L35.4392 37.2217L33.4747 38.3558ZM36.4214 36.6546L37.4028 37.2212L44.2786 33.2518L43.2972 32.6852L36.4214 36.6546ZM32.9818 40.9066C32.8515 40.9817 32.7783 41.0837 32.7782 41.19C32.7781 41.2963 32.8512 41.3982 32.9813 41.4734C33.1114 41.5485 33.288 41.5907 33.4721 41.5906C33.6562 41.5906 33.8329 41.5483 33.9631 41.4731C34.0934 41.3979 34.1666 41.2959 34.1667 41.1896C34.1668 41.0833 34.0937 40.9814 33.9636 40.9063C33.8334 40.8312 33.6569 40.789 33.4727 40.789C33.2886 40.7891 33.112 40.8314 32.9818 40.9066ZM39.3664 37.2207L40.3478 37.7872L44.2768 35.519L43.2955 34.9524L39.3664 37.2207ZM34.9445 42.0396C34.8142 42.1148 34.741 42.2168 34.7409 42.3231C34.7408 42.4294 34.8139 42.5313 34.9441 42.6064C35.0742 42.6816 35.2507 42.7238 35.4349 42.7237C35.619 42.7237 35.7956 42.6814 35.9259 42.6062C36.0561 42.531 36.1293 42.429 36.1294 42.3227C36.1295 42.2164 36.0564 42.1145 35.9263 42.0394C35.7962 41.9643 35.6196 41.9221 35.4355 41.9221C35.2514 41.9222 35.0747 41.9644 34.9445 42.0396ZM41.3292 38.3538L42.3105 38.9203L48.2041 35.518L47.2227 34.9514L41.3292 38.3538ZM48.205 34.3844L49.1864 34.9509L50.1686 34.3838L49.1872 33.8173L48.205 34.3844ZM36.9072 43.1727C36.777 43.2479 36.7038 43.3499 36.7037 43.4562C36.7036 43.5625 36.7767 43.6644 36.9068 43.7395C37.0369 43.8147 37.2135 43.8568 37.3976 43.8568C37.5817 43.8568 37.7584 43.8145 37.8886 43.7393C38.0189 43.6641 38.0921 43.5621 38.0922 43.4558C38.0923 43.3495 38.0192 43.2476 37.8891 43.1725C37.7589 43.0974 37.5824 43.0552 37.3982 43.0552C37.2141 43.0553 37.0375 43.0975 36.9072 43.1727ZM43.2919 39.4869L44.2733 40.0534L50.1668 36.6511L49.1855 36.0845L43.2919 39.4869ZM50.1677 35.5175L51.1491 36.084L52.1314 35.5169L51.15 34.9504L50.1677 35.5175ZM38.87 44.3058C38.7397 44.381 38.6665 44.483 38.6664 44.5893C38.6663 44.6956 38.7394 44.7975 38.8695 44.8726C38.9997 44.9478 39.1762 44.9899 39.3604 44.9899C39.5445 44.9898 39.7211 44.9476 39.8514 44.8724C39.9816 44.7972 40.0548 44.6952 40.0549 44.5889C40.055 44.4826 39.9819 44.3807 39.8518 44.3056C39.7217 44.2304 39.5451 44.1883 39.361 44.1883C39.1769 44.1884 39.0002 44.2306 38.87 44.3058ZM45.2547 40.62L46.236 41.1865L48.2006 40.0524L47.2192 39.4858L45.2547 40.62ZM40.8327 45.4389C40.7025 45.5141 40.6292 45.6161 40.6292 45.7224C40.6291 45.8287 40.7021 45.9306 40.8323 46.0057C40.9624 46.0809 41.139 46.123 41.3231 46.123C41.5072 46.1229 41.6838 46.0807 41.8141 46.0055C41.9444 45.9303 42.0176 45.8283 42.0177 45.722C42.0177 45.6157 41.9447 45.5138 41.8145 45.4387C41.6844 45.3635 41.5079 45.3214 41.3237 45.3214C41.1396 45.3215 40.963 45.3637 40.8327 45.4389ZM43.2884 44.0213L44.2697 44.5878L52.1278 40.0514L51.1464 39.4848L43.2884 44.0213ZM52.1287 38.9178L53.1101 39.4843L55.0746 38.3502L54.0932 37.7836L52.1287 38.9178ZM42.7955 46.572C42.6652 46.6472 42.592 46.7492 42.5919 46.8555C42.5918 46.9618 42.6649 47.0637 42.795 47.1388C42.9252 47.2139 43.1017 47.2561 43.2858 47.2561C43.47 47.256 43.6466 47.2138 43.7768 47.1386C43.9071 47.0634 43.9803 46.9614 43.9804 46.8551C43.9805 46.7488 43.9074 46.6469 43.7773 46.5718C43.6471 46.4966 43.4706 46.4544 43.2865 46.4545C43.1023 46.4545 42.9257 46.4968 42.7955 46.572ZM45.2511 45.1544L46.2325 45.7209L51.1438 42.8856L50.1624 42.3191L45.2511 45.1544ZM51.1447 41.752L52.126 42.3186L59.9841 37.7821L59.0027 37.2156L51.1447 41.752Z" fill="white"/>
<circle cx="64.4215" cy="27.7894" r="8.21053" fill="#DF4747"/>
<path d="M64.4197 31.6351C63.8025 31.6327 63.2714 31.4808 62.8264 31.1794C62.3838 30.8779 62.0429 30.4413 61.8037 29.8696C61.5668 29.2978 61.4496 28.61 61.452 27.8062C61.452 27.0047 61.5704 26.3217 61.8073 25.7571C62.0465 25.1925 62.3874 24.7631 62.83 24.4688C63.275 24.1722 63.8049 24.0239 64.4197 24.0239C65.0345 24.0239 65.5632 24.1722 66.0058 24.4688C66.4508 24.7655 66.7929 25.1961 67.0321 25.7607C67.2714 26.3229 67.3898 27.0047 67.3874 27.8062C67.3874 28.6124 67.2678 29.3014 67.0286 29.8732C66.7917 30.4449 66.452 30.8815 66.0094 31.183C65.5668 31.4844 65.0369 31.6351 64.4197 31.6351ZM64.4197 30.3468C64.8408 30.3468 65.1769 30.1351 65.4281 29.7117C65.6793 29.2882 65.8037 28.6531 65.8013 27.8062C65.8013 27.2488 65.7439 26.7846 65.629 26.4138C65.5166 26.043 65.3563 25.7643 65.1482 25.5777C64.9424 25.3911 64.6996 25.2978 64.4197 25.2978C64.001 25.2978 63.6661 25.5071 63.4149 25.9258C63.1637 26.3444 63.0369 26.9712 63.0345 27.8062C63.0345 28.3708 63.0908 28.8421 63.2032 29.22C63.318 29.5956 63.4795 29.8779 63.6876 30.0669C63.8958 30.2535 64.1398 30.3468 64.4197 30.3468Z" fill="white"/>
</g>
<defs>
<clipPath id="clip0_420_373">
<rect width="61.8947" height="61.8947" fill="white" transform="translate(10.7373 11.3684)"/>
</clipPath>
</defs>
</svg>
