<svg width="12" height="12" viewBox="0 0 12 12" fill="none" xmlns="http://www.w3.org/2000/svg">
<path d="M1.33333 12C0.966668 12 0.652668 11.8693 0.391334 11.608C0.130001 11.3467 -0.000443313 11.0329 1.13186e-06 10.6667V1.33333C1.13186e-06 0.966668 0.130668 0.652668 0.392001 0.391334C0.653334 0.130001 0.967112 -0.000443313 1.33333 1.13186e-06H6V1.33333H1.33333V10.6667H10.6667V6H12V10.6667C12 11.0333 11.8693 11.3473 11.608 11.6087C11.3467 11.87 11.0329 12.0004 10.6667 12H1.33333ZM4.46667 8.46667L3.53333 7.53333L9.73334 1.33333H7.33333V1.13186e-06H12V4.66667H10.6667V2.26667L4.46667 8.46667Z" fill="#6166f1"/>
</svg>
