<svg width="17" height="17" viewBox="0 0 17 17" fill="none" xmlns="http://www.w3.org/2000/svg">
<rect x="0.2" y="0.2" width="16.6" height="16.6" rx="1.8" fill="#F6F6F6"/>
<path d="M10.3176 4.7001L7.82285 7.18853C7.28321 7.72779 6.58299 8.07716 5.82761 8.18404L8.82118 11.1699C8.92639 10.4148 9.27692 9.71517 9.8188 9.17885L12.3136 6.69113L10.3176 4.7001ZM9.8188 2.21167L14.8076 7.18924C14.9337 7.32273 15.0027 7.50012 14.9999 7.68369C14.9972 7.86726 14.923 8.04252 14.793 8.1722C14.663 8.30189 14.4876 8.37575 14.304 8.37809C14.1205 8.38044 13.9432 8.31107 13.81 8.18475L13.3112 7.68664L10.8164 10.1751C10.6196 10.3708 10.4634 10.6034 10.3568 10.8597C10.2502 11.116 10.1954 11.3908 10.1954 11.6683C10.1954 11.9459 10.2502 12.2207 10.3568 12.477C10.4634 12.7332 10.6196 12.9659 10.8164 13.1616L9.8188 14.1571L6.84001 11.1861L3.34762 14.6693H2.35V13.6738L5.84238 10.1898L2.83404 7.18853L3.83166 6.19302C4.22875 6.58978 4.76711 6.81264 5.32845 6.81264C5.88978 6.81264 6.42814 6.58978 6.82523 6.19302L9.31999 3.70389L8.82048 3.20648C8.7543 3.14111 8.70171 3.06329 8.66574 2.9775C8.62978 2.89171 8.61115 2.79965 8.61093 2.70662C8.61071 2.6136 8.6289 2.52145 8.66446 2.43549C8.70001 2.34953 8.75223 2.27146 8.8181 2.20577C8.88397 2.14009 8.96219 2.08809 9.04825 2.05277C9.13431 2.01746 9.22651 1.99953 9.31954 2.00001C9.41256 2.00049 9.50457 2.01938 9.59026 2.05559C9.67594 2.0918 9.75362 2.14531 9.8188 2.21167Z" fill="#6166F1"/>
<rect x="0.2" y="0.2" width="16.6" height="16.6" rx="1.8" stroke="#E5E5EB" stroke-width="0.4"/>
</svg>
