<svg width="17" height="17" viewBox="0 0 17 17" fill="none" xmlns="http://www.w3.org/2000/svg">
<rect x="0.2" y="0.2" width="16.6" height="16.6" rx="1.8" fill="#F6F6F6"/>
<path d="M10.2783 4.93499L8.04562 7.16199C7.56267 7.6446 6.93601 7.95726 6.25999 8.05292L8.93906 10.7251C9.03322 10.0493 9.34693 9.42319 9.83188 8.94321L12.0645 6.71684L10.2783 4.93499ZM9.83188 2.70799L14.2966 7.16262C14.4094 7.28209 14.4711 7.44084 14.4687 7.60513C14.4662 7.76941 14.3998 7.92626 14.2835 8.04232C14.1672 8.15838 14.0102 8.22448 13.8459 8.22658C13.6816 8.22868 13.523 8.1666 13.4038 8.05355L12.9574 7.60777L10.7247 9.83477C10.5485 10.0099 10.4088 10.2181 10.3134 10.4475C10.218 10.6768 10.1689 10.9228 10.1689 11.1712C10.1689 11.4196 10.218 11.6655 10.3134 11.8948C10.4088 12.1242 10.5485 12.3324 10.7247 12.5075L9.83188 13.3985L7.16603 10.7395L4.04055 13.8568H3.14773V12.9659L6.27321 9.84799L3.58092 7.16199L4.47373 6.27106C4.8291 6.62614 5.31091 6.82559 5.81327 6.82559C6.31563 6.82559 6.79744 6.62614 7.15281 6.27106L9.38547 4.04344L8.93844 3.59829C8.87921 3.53978 8.83214 3.47014 8.79996 3.39336C8.76777 3.31658 8.7511 3.23419 8.7509 3.15094C8.7507 3.06769 8.76698 2.98522 8.7988 2.90829C8.83063 2.83136 8.87736 2.76149 8.93631 2.70271C8.99526 2.64392 9.06526 2.59739 9.14228 2.56578C9.2193 2.53418 9.30181 2.51813 9.38506 2.51856C9.46831 2.519 9.55066 2.5359 9.62734 2.5683C9.70403 2.60071 9.77354 2.6486 9.83188 2.70799Z" fill="#6166F1"/>
<path d="M10.2783 4.93499L8.04562 7.16199C7.56267 7.6446 6.93601 7.95726 6.25999 8.05292L8.93906 10.7251C9.03322 10.0493 9.34693 9.42319 9.83188 8.94321L12.0645 6.71684L10.2783 4.93499Z" fill="#6166F1"/>
<rect x="0.2" y="0.2" width="16.6" height="16.6" rx="1.8" stroke="#D9D9D9" stroke-width="0.4"/>
</svg>
