<svg width="18" height="18" viewBox="0 0 18 18" fill="none" xmlns="http://www.w3.org/2000/svg">
<path d="M6.25866 5.42483L8.16699 3.50817V11.4998C8.16699 11.7208 8.25479 11.9328 8.41107 12.0891C8.56735 12.2454 8.77931 12.3332 9.00033 12.3332C9.22134 12.3332 9.4333 12.2454 9.58958 12.0891C9.74586 11.9328 9.83366 11.7208 9.83366 11.4998V3.50817L11.742 5.42483C11.8195 5.50294 11.9116 5.56493 12.0132 5.60724C12.1147 5.64955 12.2236 5.67133 12.3337 5.67133C12.4437 5.67133 12.5526 5.64955 12.6541 5.60724C12.7557 5.56493 12.8479 5.50294 12.9253 5.42483C13.0034 5.34736 13.0654 5.2552 13.1077 5.15365C13.15 5.0521 13.1718 4.94318 13.1718 4.83317C13.1718 4.72316 13.15 4.61423 13.1077 4.51269C13.0654 4.41114 13.0034 4.31897 12.9253 4.2415L9.59199 0.908166C9.51274 0.832298 9.41928 0.772828 9.31699 0.733166C9.11411 0.649817 8.88654 0.649817 8.68366 0.733166C8.58137 0.772828 8.48791 0.832298 8.40866 0.908166L5.07533 4.2415C4.99763 4.3192 4.93599 4.41144 4.89394 4.51296C4.85189 4.61448 4.83025 4.72328 4.83025 4.83317C4.83025 4.94305 4.85189 5.05186 4.89394 5.15337C4.93599 5.25489 4.99763 5.34713 5.07533 5.42483C5.15302 5.50253 5.24527 5.56417 5.34678 5.60622C5.4483 5.64827 5.55711 5.66991 5.66699 5.66991C5.77687 5.66991 5.88568 5.64827 5.9872 5.60622C6.08872 5.56417 6.18096 5.50253 6.25866 5.42483ZM16.5003 8.99983C16.2793 8.99983 16.0673 9.08763 15.9111 9.24391C15.7548 9.40019 15.667 9.61215 15.667 9.83317V14.8332C15.667 15.0542 15.5792 15.2661 15.4229 15.4224C15.2666 15.5787 15.0547 15.6665 14.8337 15.6665H3.16699C2.94598 15.6665 2.73402 15.5787 2.57774 15.4224C2.42146 15.2661 2.33366 15.0542 2.33366 14.8332V9.83317C2.33366 9.61215 2.24586 9.40019 2.08958 9.24391C1.9333 9.08763 1.72134 8.99983 1.50033 8.99983C1.27931 8.99983 1.06735 9.08763 0.91107 9.24391C0.75479 9.40019 0.666992 9.61215 0.666992 9.83317V14.8332C0.666992 15.4962 0.930384 16.1321 1.39923 16.6009C1.86807 17.0698 2.50395 17.3332 3.16699 17.3332H14.8337C15.4967 17.3332 16.1326 17.0698 16.6014 16.6009C17.0703 16.1321 17.3337 15.4962 17.3337 14.8332V9.83317C17.3337 9.61215 17.2459 9.40019 17.0896 9.24391C16.9333 9.08763 16.7213 8.99983 16.5003 8.99983Z" fill="#2B61E3"/>
</svg>
