<svg width="1769" height="475" viewBox="0 0 1769 475" fill="none" xmlns="http://www.w3.org/2000/svg">
<path d="M0 423V80H136V279.8L0 423Z" fill="#9192FF"/>
<path d="M283 475V80H138V279.9L283 475Z" fill="#ADAEFF"/>
<path d="M247.1 0H36.2999C16.2999 0 0.199951 16.2 0.199951 36.1V78.3H283.3V36.1C283.3 16.2 267.1 0 247.1 0ZM45.9999 55.4C38.6999 55.4 32.7999 49.5 32.7999 42.2C32.7999 34.9 38.6999 29 45.9999 29C53.2999 29 59.2 34.9 59.2 42.2C59.2 49.5 53.2999 55.4 45.9999 55.4ZM97.7999 55.4C90.4999 55.4 84.5999 49.5 84.5999 42.2C84.5999 34.9 90.4999 29 97.7999 29C105.1 29 111 34.9 111 42.2C111 49.5 105.1 55.4 97.7999 55.4ZM149.6 55.4C142.3 55.4 136.4 49.5 136.4 42.2C136.4 34.9 142.3 29 149.6 29C156.9 29 162.8 34.9 162.8 42.2C162.8 49.5 156.9 55.4 149.6 55.4Z" fill="#6166F1"/>
<path d="M850.6 192.6L792.9 265.7V131.9H754V344H792.9V324.6L819.9 288.9L850.6 344H895.1L844.8 255.7L895.1 192.6H850.6Z" fill="#232438"/>
<path d="M706.5 209.3C700.4 203.1 693.2 198.2 685 194.7C676.8 191.1 668.1 189.3 658.8 189.3C650.2 189.3 641.9 190.9 634 194C626.2 197 619.1 201.4 612.9 207L600.1 192.3H590.8V344H629.5V257.3C629.5 253.3 630.3 249.6 631.8 246.1C633.3 242.5 635.4 239.4 638 236.7C640.6 234.1 643.8 232 647.3 230.5C650.9 229 654.7 228.2 658.8 228.2C662.8 228.2 666.5 229 670 230.5C673.5 232 676.6 234.1 679.2 236.7C681.9 239.3 683.9 242.5 685.4 246.1C686.9 249.6 687.7 253.3 687.7 257.3V344H726.4V257.3C726.4 248 724.6 239.2 721 230.9C717.5 222.6 712.7 215.4 706.5 209.3Z" fill="#232438"/>
<path d="M561.2 192.3H522.2V344H561.2V192.3Z" fill="#232438"/>
<path d="M403.5 140.8H362.8V344H505.1V303.3H403.5V140.8Z" fill="#232438"/>
<path d="M947.5 238C951 234 955.1 231 959.7 228.8C964.4 226.6 969.4 225.5 974.7 225.5C978.5 225.5 982.2 226.1 985.8 227.2C989.4 228.3 992.7 230 995.7 232.2C998.8 234.4 1001.6 237.1 1004.1 240.3C1006.6 243.4 1008.5 247 1009.9 250.9L1038.2 222.4C1034.8 216.6 1030.7 211.5 1026 207.1C1021.4 202.7 1016.3 198.9 1010.7 195.9C1005.2 192.8 999.4 190.4 993.3 188.8C987.3 187.2 981.1 186.4 974.7 186.4C964 186.4 954 188.6 944.5 192.9C935.1 197.2 926.9 203.2 919.8 210.8C912.8 218.3 907.3 227 903.2 237.2C899.1 247.3 897.1 258.2 897.1 269.8C897.1 280.5 899.1 290.5 903.2 299.8C907.3 309.2 912.8 317.3 919.8 324.3C926.9 331.3 935.1 336.8 944.5 340.9C953.9 344.9 964 346.8 974.7 346.8C981 346.8 987.2 346 993.1 344.5C999.2 343.1 1004.9 341 1010.2 338.1C1015.7 335.3 1020.7 331.8 1025.4 327.8C1030.1 323.7 1034.3 319.2 1037.9 314.1L1009.6 285.6C1008.1 289 1006.1 292.1 1003.7 294.9C1001.3 297.6 998.6 300 995.5 302C992.5 303.9 989.2 305.4 985.7 306.4C982.2 307.4 978.6 308 974.8 308C969.5 308 964.5 307 959.8 305C955.2 303 951.1 300.3 947.6 296.8C944.2 293.3 941.5 289.3 939.5 284.6C937.5 280 936.5 275 936.5 269.7C936.5 263.2 937.5 257.2 939.5 251.8C941.4 246.5 944.1 241.9 947.5 238Z" fill="#232438"/>
<path d="M1222.9 344H1223V348.8V384L1238.5 363.4L1261.9 389.1V344V312.8V131.9H1222.9V344Z" fill="#232438"/>
<path d="M1553.3 238C1556.8 234 1560.9 231 1565.5 228.8C1570.2 226.6 1575.2 225.5 1580.5 225.5C1584.3 225.5 1588 226.1 1591.6 227.2C1595.2 228.3 1598.5 230 1601.5 232.2C1604.6 234.4 1607.4 237.1 1609.9 240.3C1612.4 243.4 1614.3 247 1615.7 250.9L1644 222.4C1640.6 216.6 1636.5 211.5 1631.8 207.1C1627.2 202.7 1622.1 198.9 1616.5 195.9C1611 192.8 1605.2 190.4 1599.1 188.8C1593 187.2 1586.9 186.4 1580.5 186.4C1569.8 186.4 1559.8 188.6 1550.3 192.9C1540.9 197.2 1532.7 203.2 1525.6 210.8C1518.6 218.3 1513.1 227 1509 237.2C1504.9 247.3 1502.9 258.2 1502.9 269.8C1502.9 280.5 1504.9 290.5 1509 299.8C1513.1 309.2 1518.6 317.3 1525.6 324.3C1532.7 331.3 1540.9 336.8 1550.3 340.9C1559.7 344.9 1569.8 346.8 1580.5 346.8C1586.8 346.8 1593 346 1598.9 344.5C1605 343.1 1610.7 341 1616.1 338.1C1621.6 335.3 1626.6 331.8 1631.2 327.8C1635.9 323.7 1640.1 319.2 1643.7 314.1L1615.4 285.6C1613.9 289 1611.9 292.1 1609.4 294.9C1607 297.6 1604.3 300 1601.2 302C1598.2 303.9 1594.9 305.4 1591.4 306.4C1587.9 307.4 1584.3 308 1580.5 308C1575.2 308 1570.2 307 1565.5 305C1560.9 303 1556.8 300.3 1553.3 296.8C1549.9 293.3 1547.2 289.3 1545.2 284.6C1543.2 279.9 1542.2 275 1542.2 269.7C1542.2 263.2 1543.2 257.2 1545.2 251.8C1547.2 246.5 1549.9 241.9 1553.3 238Z" fill="#232438"/>
<path d="M1768.4 231.1V192.6H1709.7V132H1671.2V192.6H1652.4V231.1H1671.2V276.2C1671.2 285.5 1672.9 294.3 1676.4 302.5C1680 310.7 1684.9 317.9 1691 324.2C1697.2 330.3 1704.5 335.2 1712.7 338.8C1720.9 342.3 1729.7 344 1739.1 344H1768.4V305.5H1739C1734.9 305.5 1731.1 304.7 1727.5 303.2C1723.9 301.6 1720.8 299.5 1718.1 296.8C1715.5 294.2 1713.4 291.1 1711.9 287.6C1710.4 284 1709.6 280.2 1709.6 276.1V231H1768.4V231.1Z" fill="#232438"/>
<path d="M1480.5 205.7C1475.8 201.5 1470.7 198.1 1465.2 195.2C1459.8 192.4 1454.1 190.2 1448.1 188.7C1442 187.2 1435.9 186.4 1429.5 186.4C1418.8 186.4 1408.8 188.3 1399.3 192.2C1389.9 196.1 1381.7 201.5 1374.6 208.5C1367.6 215.5 1362.1 223.9 1358 233.9C1353.9 243.8 1351.9 254.8 1351.9 266.8C1351.9 278.5 1353.9 289.3 1358 299.1C1362.1 308.8 1367.6 317.2 1374.6 324.3C1381.7 331.4 1389.9 336.9 1399.3 340.9C1408.7 344.9 1418.8 346.8 1429.5 346.8C1435.8 346.8 1442 346 1447.9 344.5C1453.9 343.1 1459.7 341 1465.1 338.1C1470.6 335.3 1475.6 331.8 1480.2 327.8C1484.9 323.7 1489.1 319.2 1492.7 314.1L1464.4 285.6C1462.9 289 1460.9 292.1 1458.5 294.9C1456.1 297.6 1453.4 300 1450.3 302C1447.3 303.9 1444 305.4 1440.5 306.4C1437 307.4 1433.4 308 1429.6 308C1428.1 308 1426.6 307.9 1425.1 307.8C1423.6 307.6 1422.1 307.3 1420.6 306.8L1493.1 219.4C1489.4 214.4 1485.2 209.8 1480.5 205.7ZM1395.2 286.9C1394.4 285.6 1393.8 284.1 1393.4 282.4C1393 280.7 1392.5 279 1392.1 277.2C1391.8 275.3 1391.6 273.5 1391.4 271.7C1391.3 269.9 1391.3 268.3 1391.3 266.9C1391.3 260.6 1392.3 254.9 1394.3 249.9C1396.3 244.8 1399 240.5 1402.4 236.9C1405.9 233.3 1409.9 230.6 1414.6 228.7C1419.3 226.7 1424.3 225.7 1429.6 225.7C1431.5 225.7 1433.3 225.8 1435 226C1436.8 226.2 1438.6 226.6 1440.4 227.3L1395.2 286.9Z" fill="#232438"/>
<path d="M1178.9 208.6C1171.9 201.5 1163.7 196.1 1154.2 192.3C1144.9 188.4 1134.8 186.5 1124 186.5C1113.3 186.5 1103.3 188.5 1093.8 192.6C1084.5 196.7 1076.2 202.3 1069.1 209.5C1062.1 216.6 1056.6 225 1052.5 234.9C1048.4 244.7 1046.4 255.4 1046.4 266.9C1046.4 278.2 1048.4 288.8 1052.5 298.6C1056.6 308.3 1062.1 316.8 1069.1 324C1076.2 331.1 1084.4 336.7 1093.8 340.9C1103.2 345 1113.3 347 1124 347C1134.8 347 1144.8 345 1154.2 340.9C1163.7 336.7 1171.9 331.1 1178.9 324C1185.9 316.8 1191.4 308.4 1195.5 298.6C1199.6 288.8 1201.6 278.2 1201.6 266.9C1201.6 254.8 1199.6 243.9 1195.5 234C1191.4 224 1185.8 215.6 1178.9 208.6ZM1159.4 283.7C1157.4 288.8 1154.7 293.1 1151.2 296.7C1147.7 300.3 1143.6 303.1 1138.9 305.1C1134.3 307.1 1129.3 308.1 1124 308.1C1118.7 308.1 1113.7 307.1 1109 305C1104.4 302.8 1100.3 299.9 1096.8 296.2C1093.4 292.5 1090.7 288.2 1088.7 283.2C1086.7 278.2 1085.7 272.8 1085.7 266.9C1085.7 260.7 1086.7 255 1088.7 250C1090.7 244.9 1093.4 240.6 1096.8 237C1100.3 233.3 1104.4 230.5 1109 228.6C1113.7 226.6 1118.7 225.6 1124 225.6C1129.3 225.6 1134.2 226.6 1138.9 228.6C1143.6 230.5 1147.7 233.3 1151.2 237C1154.7 240.6 1157.4 244.9 1159.4 250C1161.5 255 1162.5 260.6 1162.5 266.9C1162.6 272.9 1161.5 278.5 1159.4 283.7Z" fill="#232438"/>
<path d="M1291.5 312.8V344V348.8V384L1307.1 363.4L1330.4 389.1V344V312.8V131.9H1291.5V312.8Z" fill="#232438"/>
<path d="M541.7 169.8C557.716 169.8 570.7 156.816 570.7 140.8C570.7 124.784 557.716 111.8 541.7 111.8C525.684 111.8 512.7 124.784 512.7 140.8C512.7 156.816 525.684 169.8 541.7 169.8Z" fill="#6166F1"/>
</svg>
