<svg width="284" height="475" viewBox="0 0 284 475" fill="none" xmlns="http://www.w3.org/2000/svg">
<path d="M0 423V80H136V279.8L0 423Z" fill="#9192FF"/>
<path d="M283 475V80H138V279.9L283 475Z" fill="#ADAEFF"/>
<path d="M247.1 0H36.3C16.3 0 0.200012 16.2 0.200012 36.1V78.3H283.3V36.1C283.3 16.2 267.1 0 247.1 0ZM46 55.4C38.7 55.4 32.8 49.5 32.8 42.2C32.8 34.9 38.7 29 46 29C53.3 29 59.2 34.9 59.2 42.2C59.2 49.5 53.3 55.4 46 55.4ZM97.8 55.4C90.5 55.4 84.6 49.5 84.6 42.2C84.6 34.9 90.5 29 97.8 29C105.1 29 111 34.9 111 42.2C111 49.5 105.1 55.4 97.8 55.4ZM149.6 55.4C142.3 55.4 136.4 49.5 136.4 42.2C136.4 34.9 142.3 29 149.6 29C156.9 29 162.8 34.9 162.8 42.2C162.8 49.5 156.9 55.4 149.6 55.4Z" fill="#6166F1"/>
</svg>
