<svg width="10" height="16" viewBox="0 0 10 16" fill="none" xmlns="http://www.w3.org/2000/svg">
<path d="M7.60426 15.5833L0.583427 8.58329C0.500094 8.49996 0.440928 8.40968 0.405928 8.31246C0.370928 8.21524 0.353706 8.11107 0.354261 7.99996C0.354261 7.88885 0.371483 7.78468 0.405928 7.68746C0.440372 7.59024 0.499539 7.49996 0.583427 7.41663L7.60426 0.395793C7.79871 0.201348 8.04176 0.104126 8.33343 0.104126C8.6251 0.104126 8.8751 0.208293 9.08343 0.416626C9.29176 0.624959 9.39593 0.868015 9.39593 1.14579C9.39593 1.42357 9.29176 1.66663 9.08343 1.87496L2.95843 7.99996L9.08343 14.125C9.27787 14.3194 9.3751 14.5591 9.3751 14.8441C9.3751 15.1291 9.27093 15.3755 9.0626 15.5833C8.85426 15.7916 8.61121 15.8958 8.33343 15.8958C8.05565 15.8958 7.8126 15.7916 7.60426 15.5833Z" fill="white"/>
</svg>
