<svg width="12" height="14" viewBox="0 0 12 14" fill="none" xmlns="http://www.w3.org/2000/svg">
<path d="M1.33333 13.6666C0.966668 13.6666 0.652668 13.536 0.391334 13.2746C0.130001 13.0133 -0.000443313 12.6995 1.13186e-06 12.3333V2.99998H1.33333V12.3333H8.66667V13.6666H1.33333ZM4 11C3.63333 11 3.31933 10.8693 3.058 10.608C2.79667 10.3466 2.66622 10.0329 2.66667 9.66665V1.66665C2.66667 1.29998 2.79733 0.985981 3.05867 0.724647C3.32 0.463314 3.63378 0.33287 4 0.333314H10C10.3667 0.333314 10.6807 0.463981 10.942 0.725314C11.2033 0.986647 11.3338 1.30043 11.3333 1.66665V9.66665C11.3333 10.0333 11.2027 10.3473 10.9413 10.6086C10.68 10.87 10.3662 11.0004 10 11H4ZM4 9.66665H10V1.66665H4V9.66665Z" fill="#9CA3AF"/>
</svg>
