<svg width="20" height="20" viewBox="0 0 20 20" fill="none" xmlns="http://www.w3.org/2000/svg">
<path d="M14.1667 5.83331H11.6667C11.2084 5.83331 10.8334 6.20831 10.8334 6.66665C10.8334 7.12498 11.2084 7.49998 11.6667 7.49998H14.1667C15.5417 7.49998 16.6667 8.62498 16.6667 9.99998C16.6667 11.375 15.5417 12.5 14.1667 12.5H11.6667C11.2084 12.5 10.8334 12.875 10.8334 13.3333C10.8334 13.7916 11.2084 14.1666 11.6667 14.1666H14.1667C16.4667 14.1666 18.3334 12.3 18.3334 9.99998C18.3334 7.69998 16.4667 5.83331 14.1667 5.83331ZM6.66675 9.99998C6.66675 10.4583 7.04175 10.8333 7.50008 10.8333H12.5001C12.9584 10.8333 13.3334 10.4583 13.3334 9.99998C13.3334 9.54165 12.9584 9.16665 12.5001 9.16665H7.50008C7.04175 9.16665 6.66675 9.54165 6.66675 9.99998ZM8.33341 12.5H5.83341C4.45841 12.5 3.33341 11.375 3.33341 9.99998C3.33341 8.62498 4.45841 7.49998 5.83341 7.49998H8.33341C8.79175 7.49998 9.16675 7.12498 9.16675 6.66665C9.16675 6.20831 8.79175 5.83331 8.33341 5.83331H5.83341C3.53341 5.83331 1.66675 7.69998 1.66675 9.99998C1.66675 12.3 3.53341 14.1666 5.83341 14.1666H8.33341C8.79175 14.1666 9.16675 13.7916 9.16675 13.3333C9.16675 12.875 8.79175 12.5 8.33341 12.5Z" fill="white"/>
</svg>
