<svg width="10" height="13" viewBox="0 0 10 13" fill="none" xmlns="http://www.w3.org/2000/svg">
<path d="M0.999186 11.1667C0.999186 11.9 1.59919 12.5 2.33252 12.5H7.66585C8.39919 12.5 8.99919 11.9 8.99919 11.1667V4.5C8.99919 3.76667 8.39919 3.16667 7.66585 3.16667H2.33252C1.59919 3.16667 0.999186 3.76667 0.999186 4.5V11.1667ZM2.99919 4.5H6.99919C7.36585 4.5 7.66585 4.8 7.66585 5.16667V10.5C7.66585 10.8667 7.36585 11.1667 6.99919 11.1667H2.99919C2.63252 11.1667 2.33252 10.8667 2.33252 10.5V5.16667C2.33252 4.8 2.63252 4.5 2.99919 4.5ZM7.33252 1.16667L6.85919 0.693333C6.73919 0.573333 6.56585 0.5 6.39252 0.5H3.60585C3.43252 0.5 3.25919 0.573333 3.13919 0.693333L2.66585 1.16667H0.999186C0.63252 1.16667 0.33252 1.46667 0.33252 1.83333C0.33252 2.2 0.63252 2.5 0.999186 2.5H8.99919C9.36585 2.5 9.66585 2.2 9.66585 1.83333C9.66585 1.46667 9.36585 1.16667 8.99919 1.16667H7.33252Z" fill="white"/>
</svg>
