<svg width="11" height="11" viewBox="0 0 11 11" fill="none" xmlns="http://www.w3.org/2000/svg">
<path d="M9.33333 3.00002L1.9375 10.4167C1.77083 10.5834 1.57278 10.6667 1.34333 10.6667C1.11389 10.6667 0.916111 10.5834 0.75 10.4167C0.583333 10.25 0.5 10.052 0.5 9.82252C0.5 9.59308 0.583333 9.3953 0.75 9.22919L8.16667 1.83336H1.83333C1.59722 1.83336 1.39917 1.75336 1.23917 1.59336C1.07917 1.43336 0.999444 1.23558 1 1.00002C1 0.763912 1.08 0.565857 1.24 0.405857C1.4 0.245857 1.59778 0.166134 1.83333 0.16669H10.1667C10.4028 0.16669 10.6008 0.24669 10.7608 0.40669C10.9208 0.56669 11.0006 0.764468 11 1.00002V9.33336C11 9.56947 10.92 9.76752 10.76 9.92752C10.6 10.0875 10.4022 10.1672 10.1667 10.1667C9.93056 10.1667 9.7325 10.0867 9.5725 9.92669C9.4125 9.76669 9.33278 9.56891 9.33333 9.33336V3.00002Z" fill="#D1D5DB"/>
</svg>
