<svg width="27" height="29" viewBox="0 0 27 29" fill="none" xmlns="http://www.w3.org/2000/svg">
<path d="M10.3657 18.835L9.13761 17.5961C9.72241 17.0061 10.3841 16.5563 11.1227 16.2465C11.8613 15.9368 12.647 15.7819 13.4797 15.7819C14.313 15.7819 15.099 15.9368 15.8376 16.2465C16.5762 16.5563 17.2376 17.0061 17.8218 17.5961L16.5937 18.835C16.1844 18.422 15.7127 18.1049 15.1788 17.8837C14.6449 17.6624 14.0785 17.5518 13.4797 17.5518C12.8803 17.5518 12.3136 17.6624 11.7797 17.8837C11.2458 18.1049 10.7745 18.422 10.3657 18.835ZM7.90954 16.335L6.65955 15.0961C7.5806 14.1669 8.62592 13.459 9.79551 12.9723C10.9651 12.4855 12.1932 12.2422 13.4797 12.2422C14.7663 12.2422 15.9943 12.4855 17.1639 12.9723C18.3335 13.459 19.3788 14.1669 20.2999 15.0961L19.0718 16.3572C18.3262 15.605 17.4709 15.0259 16.506 14.62C15.5411 14.2141 14.5323 14.0115 13.4797 14.0121C12.4271 14.0121 11.4218 14.2112 10.4639 14.6094C9.50603 15.0076 8.65457 15.5828 7.90954 16.335Z" fill="#4B4EFC"/>
<path d="M6.65836 1.69483H20.1361C21.369 1.69483 22.3696 2.69544 22.3696 3.92834V26.2635C22.3694 26.4436 22.3183 26.62 22.2223 26.7724C22.1263 26.9248 21.9892 27.047 21.8268 27.125C21.6645 27.203 21.4834 27.2336 21.3044 27.2133C21.1255 27.193 20.9558 27.1226 20.8151 27.0102L13.4355 21.1073L6.05722 27.0114C5.91665 27.1241 5.74716 27.1948 5.56821 27.2154C5.38926 27.236 5.20813 27.2057 5.04563 27.128C4.88313 27.0503 4.74585 26.9283 4.64958 26.7761C4.55331 26.6238 4.50195 26.4475 4.50141 26.2674L4.42483 3.936C4.42348 3.64195 4.48028 3.35054 4.59195 3.07852C4.70363 2.8065 4.86797 2.55924 5.07554 2.35096C5.28311 2.14268 5.52981 1.97749 5.80145 1.86488C6.07309 1.75228 6.3643 1.69449 6.65836 1.69483Z" stroke="#4B4EFC" stroke-width="2.23471"/>
</svg>
