<svg width="287" height="182" viewBox="0 0 287 182" fill="none" xmlns="http://www.w3.org/2000/svg">
<g clip-path="url(#clip0_1627_96)" filter="url(#filter0_d_1627_96)">
<path d="M76.8379 106.043C106.121 106.043 129.859 82.3044 129.859 53.0215C129.859 23.7385 106.121 0 76.8379 0C47.5549 0 23.8164 23.7385 23.8164 53.0215C23.8164 82.3044 47.5549 106.043 76.8379 106.043Z" fill="#F2F2F2"/>
<path d="M4 12.731C4 32.0223 16.1024 47.6326 31.0585 47.6326L4 12.731Z" fill="#2F2E41"/>
<path d="M31.0586 47.6321C31.0586 28.1241 44.5641 12.3384 61.2544 12.3384L31.0586 47.6321Z" fill="#6166F1"/>
<path d="M13.8037 14.4795C13.8037 32.8042 21.5212 47.6323 31.0584 47.6323L13.8037 14.4795Z" fill="#6166F1"/>
<path d="M31.0586 47.6322C31.0586 22.7053 46.6689 2.53467 65.9602 2.53467L31.0586 47.6322Z" fill="#2F2E41"/>
<path d="M25.3662 47.8782C25.3662 47.8782 29.2036 47.76 30.36 46.9365C31.5165 46.113 36.2628 45.1297 36.5497 46.4504C36.8366 47.7711 42.3166 53.0191 37.9842 53.0541C33.6519 53.089 27.9178 52.3792 26.7635 51.6762C25.6093 50.9731 25.3662 47.8782 25.3662 47.8782Z" fill="#A8A8A8"/>
<path opacity="0.2" d="M38.0615 52.5947C33.7292 52.6296 27.9951 51.9198 26.8408 51.2167C25.9618 50.6813 25.6115 48.76 25.4943 47.8735C25.4131 47.877 25.3662 47.8785 25.3662 47.8785C25.3662 47.8785 25.6093 50.9734 26.7635 51.6765C27.9178 52.3796 33.6519 53.0894 37.9842 53.0544C39.2348 53.0443 39.6668 52.5994 39.643 51.9404C39.4693 52.3385 38.9923 52.5872 38.0615 52.5947Z" fill="black"/>
<path d="M53.439 112.002C79.1475 112.002 99.9884 109.167 99.9884 105.67C99.9884 102.172 79.1475 99.3369 53.439 99.3369C27.7305 99.3369 6.88965 102.172 6.88965 105.67C6.88965 109.167 27.7305 112.002 53.439 112.002Z" fill="#3F3D56"/>
<path opacity="0.1" d="M53.439 110.986C75.0231 110.986 92.5205 108.606 92.5205 105.669C92.5205 102.733 75.0231 100.353 53.439 100.353C31.8548 100.353 14.3574 102.733 14.3574 105.669C14.3574 108.606 31.8548 110.986 53.439 110.986Z" fill="black"/>
<path d="M212.255 174C251.161 174 282.701 169.709 282.701 164.416C282.701 159.123 251.161 154.833 212.255 154.833C173.348 154.833 141.809 159.123 141.809 164.416C141.809 169.709 173.348 174 212.255 174Z" fill="#3F3D56"/>
<path d="M81.3186 166.439C104.69 166.439 123.636 163.862 123.636 160.682C123.636 157.503 104.69 154.925 81.3186 154.925C57.9472 154.925 39.001 157.503 39.001 160.682C39.001 163.862 57.9472 166.439 81.3186 166.439Z" fill="#3F3D56"/>
<path d="M119.156 155.828C141.56 161.554 184.624 148.36 189.354 133.425" stroke="#2F2E41" stroke-width="0.497854" stroke-miterlimit="10"/>
<path d="M81.0703 64.4721C81.0703 64.4721 113.431 55.5107 115.422 84.3863C117.414 113.262 88.7871 121.476 111.19 127.202" stroke="#2F2E41" stroke-width="0.497854" stroke-miterlimit="10"/>
<path d="M49.8057 133.744C49.8057 133.744 59.5318 131.051 60.1304 139.729C60.7289 148.408 52.125 150.877 58.8585 152.598" stroke="#2F2E41" stroke-width="0.497854" stroke-miterlimit="10"/>
<path d="M197.84 140.206L195.88 152.726C195.88 152.726 186.226 157.854 193.014 158.005C199.801 158.156 231.78 158.005 231.78 158.005C231.78 158.005 237.964 158.005 228.16 152.575L226.199 139.452L197.84 140.206Z" fill="#2F2E41"/>
<path opacity="0.1" d="M191.649 157.869C193.191 156.498 195.88 155.068 195.88 155.068L197.841 142.549L226.199 142.575L228.16 154.917C230.447 156.184 231.863 157.155 232.692 157.899C233.951 157.612 235.327 156.544 228.16 152.575L226.199 139.452L197.841 140.206L195.88 152.726C195.88 152.726 187.768 157.036 191.649 157.869Z" fill="black"/>
<path d="M271.258 52.9438H152.479C149.998 52.9438 147.987 54.955 147.987 57.4359V137.448C147.987 139.929 149.998 141.94 152.479 141.94H271.258C273.739 141.94 275.75 139.929 275.75 137.448V57.4359C275.75 54.955 273.739 52.9438 271.258 52.9438Z" fill="#2F2E41"/>
<path d="M271.451 57.6953H152.286V124.367H271.451V57.6953Z" fill="#3F3D56"/>
<path d="M211.868 56.338C212.285 56.338 212.623 56.0003 212.623 55.5838C212.623 55.1673 212.285 54.8296 211.868 54.8296C211.452 54.8296 211.114 55.1673 211.114 55.5838C211.114 56.0003 211.452 56.338 211.868 56.338Z" fill="#F2F2F2"/>
<path d="M275.75 129.646V137.448C275.75 138.038 275.634 138.622 275.408 139.167C275.182 139.712 274.851 140.207 274.434 140.625C274.017 141.042 273.522 141.373 272.977 141.598C272.432 141.824 271.848 141.94 271.258 141.94H152.479C151.889 141.94 151.305 141.824 150.76 141.598C150.215 141.373 149.72 141.042 149.303 140.625C148.886 140.207 148.555 139.712 148.329 139.167C148.103 138.622 147.987 138.038 147.987 137.448V129.646H275.75Z" fill="#2F2E41"/>
<path d="M245.204 166.151V167.659H164.052V166.452L164.164 166.151L166.164 160.72H243.545L245.204 166.151Z" fill="#2F2E41"/>
<path d="M276.435 164.674C276.288 165.306 275.729 165.973 274.468 166.603C269.943 168.866 260.742 166 260.742 166C260.742 166 253.652 164.793 253.652 161.625C253.851 161.489 254.059 161.366 254.274 161.256C256.176 160.249 262.485 157.766 273.67 161.361C274.494 161.62 275.23 162.102 275.796 162.754C276.249 163.285 276.604 163.958 276.435 164.674Z" fill="#2F2E41"/>
<path opacity="0.1" d="M276.435 164.673C270.896 166.796 265.959 166.954 260.892 163.435C258.337 161.661 256.016 161.222 254.273 161.255C256.176 160.249 262.484 157.765 273.669 161.36C274.493 161.619 275.229 162.101 275.795 162.754C276.249 163.284 276.604 163.957 276.435 164.673Z" fill="black"/>
<path d="M269.49 163.435C270.573 163.435 271.451 163.165 271.451 162.832C271.451 162.499 270.573 162.229 269.49 162.229C268.407 162.229 267.529 162.499 267.529 162.832C267.529 163.165 268.407 163.435 269.49 163.435Z" fill="#F2F2F2"/>
<path d="M211.869 138.697C213.452 138.697 214.735 137.414 214.735 135.831C214.735 134.248 213.452 132.965 211.869 132.965C210.286 132.965 209.003 134.248 209.003 135.831C209.003 137.414 210.286 138.697 211.869 138.697Z" fill="#F2F2F2"/>
<path opacity="0.1" d="M245.204 166.15V167.659H164.052V166.452L164.164 166.15H245.204Z" fill="black"/>
<path d="M82.813 39.5796H31.0361V99.8199H82.813V39.5796Z" fill="#2F2E41"/>
<path d="M88.0394 33.605H25.8076V55.0127H88.0394V33.605Z" fill="#3F3D56"/>
<path d="M88.0394 58.9956H25.8076V80.4033H88.0394V58.9956Z" fill="#3F3D56"/>
<path d="M88.0394 84.3862H25.8076V105.794H88.0394V84.3862Z" fill="#3F3D56"/>
<path opacity="0.4" d="M75.5942 37.3389H71.6113V41.3217H75.5942V37.3389Z" fill="#6166F1"/>
<path opacity="0.8" d="M81.3188 37.3389H77.3359V41.3217H81.3188V37.3389Z" fill="#6166F1"/>
<path d="M87.0444 37.3389H83.0615V41.3217H87.0444V37.3389Z" fill="#6166F1"/>
<path opacity="0.4" d="M75.5942 62.4805H71.6113V66.4633H75.5942V62.4805Z" fill="#6166F1"/>
<path opacity="0.8" d="M81.3188 62.4805H77.3359V66.4633H81.3188V62.4805Z" fill="#6166F1"/>
<path d="M87.0444 62.4805H83.0615V66.4633H87.0444V62.4805Z" fill="#6166F1"/>
<path opacity="0.4" d="M75.5942 87.6221H71.6113V91.6049H75.5942V87.6221Z" fill="#6166F1"/>
<path opacity="0.8" d="M81.3188 87.6221H77.3359V91.6049H81.3188V87.6221Z" fill="#6166F1"/>
<path d="M87.0444 87.6221H83.0615V91.6049H87.0444V87.6221Z" fill="#6166F1"/>
<path d="M82.8127 153.588C93.6735 153.588 102.478 144.783 102.478 133.923C102.478 123.062 93.6735 114.257 82.8127 114.257C71.9519 114.257 63.1475 123.062 63.1475 133.923C63.1475 144.783 71.9519 153.588 82.8127 153.588Z" fill="#2F2E41"/>
<path d="M79.8258 149.356H73.8516V160.06H79.8258V149.356Z" fill="#2F2E41"/>
<path d="M91.7741 149.356H85.7998V160.06H91.7741V149.356Z" fill="#2F2E41"/>
<path d="M78.8301 162.051C81.5797 162.051 83.8086 161.215 83.8086 160.184C83.8086 159.153 81.5797 158.317 78.8301 158.317C76.0805 158.317 73.8516 159.153 73.8516 160.184C73.8516 161.215 76.0805 162.051 78.8301 162.051Z" fill="#2F2E41"/>
<path d="M90.7783 161.803C93.5279 161.803 95.7569 160.967 95.7569 159.936C95.7569 158.905 93.5279 158.069 90.7783 158.069C88.0288 158.069 85.7998 158.905 85.7998 159.936C85.7998 160.967 88.0288 161.803 90.7783 161.803Z" fill="#2F2E41"/>
<path d="M83.3109 135.665C87.0228 135.665 90.0319 132.656 90.0319 128.944C90.0319 125.232 87.0228 122.223 83.3109 122.223C79.599 122.223 76.5898 125.232 76.5898 128.944C76.5898 132.656 79.599 135.665 83.3109 135.665Z" fill="white"/>
<path d="M83.3107 131.185C84.548 131.185 85.551 130.182 85.551 128.944C85.551 127.707 84.548 126.704 83.3107 126.704C82.0733 126.704 81.0703 127.707 81.0703 128.944C81.0703 130.182 82.0733 131.185 83.3107 131.185Z" fill="#3F3D56"/>
<path d="M63.737 115.635C62.1491 108.523 67.2249 101.338 75.0741 99.5852C82.9233 97.8325 90.5736 102.177 92.1615 109.288C93.7494 116.399 88.5474 119.022 80.6982 120.774C72.849 122.527 65.3249 122.746 63.737 115.635Z" fill="#6166F1"/>
<path d="M101.257 130C106.249 127.864 109.752 124.861 109.082 123.294C108.411 121.726 103.82 122.188 98.8275 124.325C93.8352 126.462 90.3319 129.464 91.0027 131.032C91.6735 132.599 96.2643 132.137 101.257 130Z" fill="#2F2E41"/>
<path d="M64.4159 143.194C69.4082 141.057 72.9115 138.054 72.2408 136.487C71.57 134.92 66.9791 135.382 61.9867 137.518C56.9944 139.655 53.4911 142.658 54.1618 144.225C54.8326 145.792 59.4235 145.331 64.4159 143.194Z" fill="#2F2E41"/>
<path d="M94.2633 139.648C94.2633 141.573 89.3075 145.373 83.8084 145.373C78.3092 145.373 73.1045 141.821 73.1045 139.897C73.1045 137.972 78.3092 138.403 83.8084 138.403C89.3075 138.403 94.2633 137.723 94.2633 139.648Z" fill="white"/>
</g>
<defs>
<filter id="filter0_d_1627_96" x="0" y="0" width="286.701" height="182" filterUnits="userSpaceOnUse" color-interpolation-filters="sRGB">
<feFlood flood-opacity="0" result="BackgroundImageFix"/>
<feColorMatrix in="SourceAlpha" type="matrix" values="0 0 0 0 0 0 0 0 0 0 0 0 0 0 0 0 0 0 127 0" result="hardAlpha"/>
<feOffset dy="4"/>
<feGaussianBlur stdDeviation="2"/>
<feComposite in2="hardAlpha" operator="out"/>
<feColorMatrix type="matrix" values="0 0 0 0 0 0 0 0 0 0 0 0 0 0 0 0 0 0 0.25 0"/>
<feBlend mode="normal" in2="BackgroundImageFix" result="effect1_dropShadow_1627_96"/>
<feBlend mode="normal" in="SourceGraphic" in2="effect1_dropShadow_1627_96" result="shape"/>
</filter>
<clipPath id="clip0_1627_96">
<rect width="278.701" height="174" fill="white" transform="translate(4)"/>
</clipPath>
</defs>
</svg>
